<?xml version="1.0" encoding="UTF-8"?>
<svg id="Layer_2" data-name="Layer 2" xmlns="http://www.w3.org/2000/svg" viewBox="0 0 1073.82 325.85" width="200" height="45">
  <defs>
    <style>
      .cls-1 {
        font-family: Poppins-Medium, Poppins;
        font-size: 62.63px;
        font-weight: 500;
      }

      .cls-1, .cls-2, .cls-3 {
        fill: #201c4f;
      }

      .cls-4 {
        stroke-width: .37px;
      }

      .cls-4, .cls-5 {
        fill: none;
        stroke: #231f20;
        stroke-miterlimit: 10;
      }

      .cls-3 {
        font-family: Poppins-Bold, Poppins;
        font-size: 144.7px;
        font-weight: 700;
      }

      .cls-6 {
        fill: #10143a;
      }

      .cls-5 {
        stroke-width: .37px;
      }
    </style>
  </defs>
  <g id="Layer_1-2" data-name="Layer 1">
    <g>
      <g>
        <g>
          <g>
            <path class="cls-2" d="m4.98,274.67H1.27v-37.64h35.6c1.83,0,3.31,1.48,3.31,3.31v31.02c0,1.83-1.48,3.31-3.31,3.31H12.03v-3.71h24.45v-30.23H4.98v33.94Z"/>
            <path class="cls-2" d="m154.34,270.97h0c0,1.95-1.58,3.52-3.52,3.52h-26.22c-.88,0-1.59-.71-1.59-1.59v-34.63c0-1.02.83-1.85,1.85-1.85h0c1.02,0,1.85.83,1.85,1.85v30.45c0,1.24,1,2.24,2.24,2.24h25.39Z"/>
            <rect class="cls-2" x="177.92" y="246.68" width="3.7" height="27.81" rx="1.85" ry="1.85"/>
            <path class="cls-2" d="m247.21,274.44h0c-.91.46-2.02.1-2.48-.81l-4.2-8.27h-15.27c-.97,0-1.76-.79-1.76-1.76h0c0-.97.79-1.76,1.76-1.76h10.83c1.21,0,1.99-1.27,1.44-2.35l-8.17-16.07c-.59-1.16-2.25-1.16-2.83,0l-15.36,30.21c-.46.91-1.58,1.27-2.49.81h0c-.91-.46-1.27-1.58-.81-2.49l17.52-34.46c.29-.57.87-.92,1.5-.92h2.1c.64,0,1.22.36,1.5.92l12.38,24.34,1.79,3.52,3.35,6.59c.46.91.1,2.02-.81,2.48Z"/>
            <path class="cls-2" d="m99.37,270.97v.63c0,1.6-1.3,2.9-2.9,2.9h-28.69c-.95,0-1.72-.77-1.72-1.72v-34.12c0-.95.77-1.72,1.72-1.72h31.25v.63c0,1.6-1.3,2.9-2.9,2.9h-24.76c-.9,0-1.62.73-1.62,1.62v27.26c0,.9.73,1.62,1.62,1.62h27.99Z"/>
            <rect class="cls-2" x="160.84" y="236.94" width="37.32" height="3.53" rx="1.76" ry="1.76"/>
            <rect class="cls-2" x="76.5" y="253.34" width="17.7" height="3.53" rx="1.76" ry="1.76"/>
          </g>
          <g>
            <path class="cls-2" d="m85.78,289.18c-2.91,0-5.34,2.14-5.77,4.93h-24.33l-7.55,4.88h-29.19v1.59h29.19l7.55-4.77h24.31c.39,2.85,2.83,5.06,5.79,5.06,3.22,0,5.85-2.62,5.85-5.85s-2.62-5.84-5.85-5.84Zm0,9.84c-2.2,0-3.99-1.79-3.99-3.99s1.79-3.99,3.99-3.99,3.99,1.79,3.99,3.99-1.79,3.99-3.99,3.99Z"/>
            <path class="cls-2" d="m157.86,295.02c0,3.22,2.62,5.85,5.85,5.85,2.96,0,5.41-2.21,5.79-5.06h24.31s7.55,4.77,7.55,4.77h29.19s0-1.59,0-1.59h-29.19s-7.55-4.88-7.55-4.88h-24.33c-.44-2.79-2.86-4.93-5.77-4.93-3.22,0-5.85,2.62-5.85,5.84Zm1.85,0c0-2.2,1.79-3.99,3.99-3.99,2.2,0,3.99,1.79,3.99,3.99s-1.79,3.99-3.99,3.99c-2.21,0-3.99-1.79-3.99-3.99Z"/>
            <g>
              <g>
                <path class="cls-2" d="m142.14,285.41c.76-.8,1.53-1.6,2.29-2.39h-10.39c.76.8,1.53,1.6,2.29,2.39h5.8Z"/>
                <path class="cls-2" d="m135.62,286.51c-.8-.76-1.6-1.53-2.39-2.29v10.39c.8-.76,1.6-1.53,2.39-2.29v-5.8Z"/>
                <path class="cls-2" d="m142.85,286.51c.8-.76,1.6-1.53,2.39-2.29v10.39c-.8-.76-1.6-1.53-2.39-2.29v-5.8Z"/>
                <path class="cls-2" d="m136.33,304.85c-.76.8-1.53,1.6-2.29,2.39h10.39c-.76-.8-1.53-1.6-2.29-2.39h-5.8Z"/>
                <path class="cls-2" d="m142.85,303.75c.8.76,1.6,1.53,2.39,2.29v-10.39c-.8.76-1.6,1.53-2.39,2.29v5.8Z"/>
                <path class="cls-2" d="m135.62,303.75c-.8.76-1.6,1.53-2.39,2.29v-10.39c.8.76,1.6,1.53,2.39,2.29v5.8Z"/>
              </g>
              <g>
                <path class="cls-2" d="m113.23,285.2c.76-.8,1.53-1.6,2.29-2.39h-10.39c.76.8,1.53,1.6,2.29,2.39h5.8Z"/>
                <path class="cls-2" d="m106.64,286.3c-.8-.76-1.6-1.53-2.39-2.29v10.39c.8-.76,1.6-1.53,2.39-2.29v-5.8Z"/>
                <path class="cls-2" d="m107.43,304.85c-.76.8-1.53,1.6-2.29,2.39h10.39c-.76-.8-1.53-1.6-2.29-2.39h-5.8Z"/>
                <path class="cls-2" d="m114.03,303.75c.8.76,1.6,1.53,2.39,2.29v-10.39c-.8.76-1.6,1.53-2.39,2.29v5.8Z"/>
                <path class="cls-2" d="m113.73,296.29c.5-.51.99-.89,1.49-1.4-.5-.43-.99-.86-1.49-1.29h-6.7c-.5.43-.99.86-1.49,1.29.5.51.99.89,1.49,1.4h6.7Z"/>
              </g>
              <rect class="cls-2" x="123.52" y="304.29" width="2.95" height="2.95"/>
            </g>
          </g>
          <g>
            <g>
              <path class="cls-2" d="m142.17,40.5c35.66,59.33,71.32,118.66,106.98,178-74.27-.42-148.55-.84-222.82-1.27,39.78-5.76,79.56-11.52,119.35-17.28,30.62,3.98,61.25,7.96,91.88,11.94-32.6-54.11-65.19-108.22-97.79-162.33l2.4-9.07Z"/>
              <path class="cls-6" d="m228.49,204.11c.23.37.46.74.68,1.11-14.4-1.6-28.8-3.19-43.19-4.79-12.47-29.43-24.94-58.86-37.42-88.29,26.64,30.66,53.29,61.31,79.93,91.97Z"/>
              <path class="cls-2" d="m114.85,18.61c37.88,61.83,75.76,123.66,113.64,185.49-26.64-30.66-53.29-61.31-79.93-91.97-11.22-26.49-22.45-52.98-33.68-79.47C80.9,89.03,46.92,145.4,12.95,201.77c-.7-3.39-1.4-6.79-2.1-10.19C45.51,133.93,80.18,76.27,114.85,18.61Z"/>
              <path class="cls-2" d="m217.64,230.48H.33c37.03-60.7,74.05-121.41,111.08-182.11-14.88,36.49-29.76,72.99-44.64,109.48-18.07,22.03-36.13,44.06-54.2,66.09h196.35c2.91,2.18,5.81,4.36,8.72,6.54Z"/>
              <path class="cls-6" d="m145.68,199.96c-39.78,5.76-79.56,11.52-119.35,17.28-.43,0-.85,0-1.28,0,8.67-9.86,17.34-19.71,26-29.57,31.54,4.1,63.08,8.2,94.62,12.3Z"/>
              <path class="cls-6" d="m112.61,46.4c5.01,12.41,10.01,24.83,15.01,37.24-20.29,24.74-40.57,49.47-60.86,74.2,14.88-36.49,29.77-72.99,44.64-109.48.4-.66.8-1.31,1.2-1.96Z"/>
            </g>
            <g>
              <path class="cls-4" d="m148.55,112.14c-11.22-26.49-22.45-52.98-33.68-79.47C80.9,89.03,46.92,145.4,12.95,201.77c-.7-3.39-1.4-6.79-2.1-10.19C45.51,133.93,80.18,76.27,114.85,18.61c37.88,61.83,75.76,123.66,113.64,185.49"/>
              <path class="cls-4" d="m66.76,157.85c-18.07,22.03-36.13,44.06-54.2,66.09h196.35c2.91,2.18,5.81,4.36,8.72,6.54H.33c37.03-60.7,74.05-121.41,111.08-182.11"/>
              <path class="cls-4" d="m145.68,199.96c30.62,3.98,61.25,7.96,91.88,11.94-32.6-54.11-65.19-108.22-97.79-162.33l2.4-9.07c35.66,59.33,71.32,118.66,106.98,178-74.27-.42-148.55-.84-222.82-1.27"/>
              <path class="cls-5" d="m145.68,199.96c-39.78,5.76-79.56,11.52-119.35,17.28"/>
              <path class="cls-5" d="m66.76,157.85c14.88-36.49,29.77-72.99,44.64-109.48"/>
              <path class="cls-5" d="m148.55,112.14c26.64,30.66,53.29,61.31,79.93,91.97"/>
            </g>
          </g>
        </g>
        <rect class="cls-2" x="308.77" width="8.74" height="325.85"/>
      </g>
      <g>
        <text class="cls-3" transform="translate(368.43 169.75)"><tspan x="0" y="0">DELTA 5.0</tspan></text>
        <text class="cls-1" transform="translate(368.43 243)"><tspan x="0" y="0">TRIANGLE FOR CHANGE</tspan></text>
      </g>
    </g>
  </g>
</svg>