<?xml version="1.0" encoding="UTF-8"?>
<svg id="Layer_2" data-name="Layer 2" xmlns="http://www.w3.org/2000/svg" viewBox="0 0 343.42 397.8">
  <defs>
    <style>
      .cls-1 {
        fill: #201c4f;
      }

      .cls-2 {
        stroke-width: .51px;
      }

      .cls-2, .cls-3 {
        fill: none;
        stroke: #231f20;
        stroke-miterlimit: 10;
      }

      .cls-4 {
        fill: #10143a;
      }

      .cls-3 {
        stroke-width: .51px;
      }
    </style>
  </defs>
  <g id="Layer_1-2" data-name="Layer 1">
    <g>
      <g>
        <path class="cls-1" d="m6.85,352.96H1.75v-51.82h49.01c2.52,0,4.56,2.04,4.56,4.56v42.7c0,2.52-2.04,4.56-4.56,4.56H16.56v-5.1h33.65v-41.62H6.85v46.72Z"/>
        <path class="cls-1" d="m212.45,347.87h0c0,2.68-2.17,4.85-4.85,4.85h-36.09c-1.21,0-2.18-.98-2.18-2.18v-47.67c0-1.4,1.14-2.54,2.54-2.54h0c1.4,0,2.54,1.14,2.54,2.54v41.92c0,1.7,1.38,3.08,3.08,3.08h34.96Z"/>
        <rect class="cls-1" x="244.92" y="314.44" width="5.09" height="38.29" rx="2.54" ry="2.54"/>
        <path class="cls-1" d="m340.29,352.64h0c-1.25.64-2.78.14-3.42-1.11l-5.78-11.38h-21.01c-1.34,0-2.43-1.09-2.43-2.43h0c0-1.34,1.09-2.43,2.43-2.43h14.91c1.66,0,2.74-1.75,1.98-3.24l-11.25-22.13c-.81-1.6-3.09-1.6-3.9,0l-21.15,41.59c-.64,1.25-2.17,1.75-3.42,1.12h0c-1.25-.64-1.75-2.17-1.12-3.42l24.12-47.43c.4-.78,1.2-1.27,2.07-1.27h2.89c.87,0,1.68.49,2.07,1.27l17.04,33.51,2.47,4.85,4.61,9.07c.64,1.25.14,2.78-1.11,3.42Z"/>
        <path class="cls-1" d="m136.79,347.87v.87c0,2.2-1.78,3.99-3.99,3.99h-39.5c-1.31,0-2.37-1.06-2.37-2.37v-46.97c0-1.31,1.06-2.37,2.37-2.37h43.01v.87c0,2.2-1.78,3.99-3.99,3.99h-34.08c-1.23,0-2.23,1-2.23,2.23v37.53c0,1.23,1,2.23,2.23,2.23h38.53Z"/>
        <rect class="cls-1" x="221.4" y="301.03" width="51.37" height="4.85" rx="2.43" ry="2.43"/>
        <rect class="cls-1" x="105.3" y="323.6" width="24.37" height="4.85" rx="2.43" ry="2.43"/>
      </g>
      <g>
        <path class="cls-1" d="m118.08,372.94c-4.01,0-7.35,2.95-7.95,6.79h-33.49l-10.39,6.72H26.07v2.18h40.18l10.39-6.57h33.46c.53,3.93,3.9,6.97,7.97,6.97,4.44,0,8.05-3.61,8.05-8.05s-3.61-8.04-8.05-8.04Zm0,13.54c-3.04,0-5.49-2.46-5.49-5.5s2.46-5.49,5.49-5.49,5.5,2.46,5.5,5.49-2.46,5.5-5.5,5.5Z"/>
        <path class="cls-1" d="m217.3,380.98c0,4.44,3.61,8.05,8.05,8.05,4.07,0,7.44-3.04,7.97-6.97h33.46s10.39,6.57,10.39,6.57h40.18s0-2.18,0-2.18h-40.18s-10.39-6.72-10.39-6.72h-33.49c-.6-3.84-3.94-6.79-7.95-6.79-4.44,0-8.05,3.61-8.05,8.04Zm2.55,0c0-3.04,2.46-5.49,5.5-5.49,3.04,0,5.49,2.46,5.49,5.49s-2.46,5.5-5.49,5.5c-3.04,0-5.5-2.46-5.5-5.5Z"/>
        <g>
          <g>
            <path class="cls-1" d="m195.66,367.75c1.05-1.1,2.11-2.2,3.16-3.29h-14.3c1.05,1.1,2.11,2.2,3.16,3.29h7.99Z"/>
            <path class="cls-1" d="m186.69,369.26c-1.1-1.05-2.2-2.11-3.29-3.16v14.3c1.1-1.05,2.2-2.11,3.29-3.16v-7.99Z"/>
            <path class="cls-1" d="m196.64,369.26c1.1-1.05,2.2-2.11,3.29-3.16v14.3c-1.1-1.05-2.2-2.11-3.29-3.16v-7.99Z"/>
            <path class="cls-1" d="m187.67,394.5c-1.05,1.1-2.11,2.2-3.16,3.29h14.3c-1.05-1.1-2.11-2.2-3.16-3.29h-7.99Z"/>
            <path class="cls-1" d="m196.64,392.99c1.1,1.05,2.2,2.11,3.29,3.16v-14.3c-1.1,1.05-2.2,2.11-3.29,3.16v7.99Z"/>
            <path class="cls-1" d="m186.69,392.99c-1.1,1.05-2.2,2.11-3.29,3.16v-14.3c1.1,1.05,2.2,2.11,3.29,3.16v7.99Z"/>
          </g>
          <g>
            <path class="cls-1" d="m155.87,367.46c1.05-1.1,2.11-2.2,3.16-3.29h-14.3c1.05,1.1,2.11,2.2,3.16,3.29h7.99Z"/>
            <path class="cls-1" d="m146.79,368.98c-1.1-1.05-2.2-2.11-3.29-3.16v14.3c1.1-1.05,2.2-2.11,3.29-3.16v-7.99Z"/>
            <path class="cls-1" d="m147.88,394.5c-1.05,1.1-2.11,2.2-3.16,3.29h14.3c-1.05-1.1-2.11-2.2-3.16-3.29h-7.99Z"/>
            <path class="cls-1" d="m156.96,392.99c1.1,1.05,2.2,2.11,3.29,3.16v-14.3c-1.1,1.05-2.2,2.11-3.29,3.16v7.99Z"/>
            <path class="cls-1" d="m156.55,382.73c.68-.7,1.37-1.23,2.05-1.93-.68-.59-1.37-1.18-2.05-1.78h-9.22c-.68.59-1.37,1.18-2.05,1.78.68.7,1.37,1.23,2.05,1.93h9.22Z"/>
          </g>
          <rect class="cls-1" x="170.03" y="393.73" width="4.06" height="4.06"/>
        </g>
      </g>
      <g>
        <g>
          <path class="cls-1" d="m195.71,30.62c49.09,81.67,98.18,163.34,147.27,245.02-102.24-.58-204.48-1.16-306.72-1.74,54.76-7.93,109.52-15.85,164.28-23.78,42.16,5.48,84.32,10.96,126.48,16.44-44.87-74.48-89.74-148.96-134.61-223.45l3.31-12.49Z"/>
          <path class="cls-4" d="m314.52,255.83c.31.51.63,1.02.94,1.53-19.82-2.2-39.64-4.4-59.46-6.59-17.17-40.51-34.34-81.03-51.51-121.54,36.68,42.2,73.35,84.4,110.03,126.6Z"/>
          <path class="cls-1" d="m158.09.49c52.14,85.11,104.28,170.23,156.43,255.34-36.67-42.2-73.35-84.4-110.03-126.6-15.45-36.47-30.91-72.93-46.36-109.39C111.36,97.43,64.59,175.02,17.82,252.62c-.96-4.67-1.93-9.35-2.89-14.02C62.65,159.23,110.37,79.86,158.09.49Z"/>
          <path class="cls-1" d="m299.59,292.14H.45C51.43,208.57,102.39,125.01,153.36,41.45c-20.48,50.24-40.97,100.47-61.45,150.71-24.87,30.33-49.74,60.65-74.6,90.97h270.28c4,3,8,6,12.01,9Z"/>
          <path class="cls-4" d="m200.54,250.12c-54.76,7.93-109.52,15.85-164.28,23.78-.59,0-1.17,0-1.76-.01,11.93-13.57,23.86-27.13,35.79-40.7,43.42,5.65,86.83,11.29,130.25,16.93Z"/>
          <path class="cls-4" d="m155.01,38.75c6.89,17.09,13.78,34.18,20.66,51.27-27.92,34.05-55.85,68.1-83.77,102.15,20.49-50.24,40.97-100.47,61.45-150.71.55-.9,1.1-1.8,1.65-2.7Z"/>
        </g>
        <g>
          <path class="cls-3" d="m204.49,129.23c-15.45-36.47-30.91-72.93-46.36-109.39C111.36,97.43,64.59,175.02,17.82,252.62c-.96-4.67-1.93-9.35-2.89-14.02C62.65,159.23,110.37,79.86,158.09.49c52.14,85.11,104.28,170.23,156.43,255.34"/>
          <path class="cls-3" d="m91.9,192.16c-24.87,30.33-49.74,60.65-74.6,90.97h270.28c4,3,8,6,12.01,9H.45C51.43,208.57,102.39,125.01,153.36,41.45"/>
          <path class="cls-3" d="m200.54,250.12c42.16,5.48,84.32,10.96,126.48,16.44-44.87-74.48-89.74-148.96-134.61-223.45l3.31-12.49c49.09,81.67,98.18,163.34,147.27,245.02-102.24-.58-204.48-1.16-306.72-1.74"/>
          <path class="cls-2" d="m200.54,250.12c-54.76,7.93-109.52,15.85-164.28,23.78"/>
          <path class="cls-2" d="m91.9,192.16c20.49-50.24,40.97-100.47,61.45-150.71"/>
          <path class="cls-2" d="m204.49,129.23c36.68,42.2,73.35,84.4,110.03,126.6"/>
        </g>
      </g>
    </g>
  </g>
</svg>